HIERARCHY
ROOT root
{
	OFFSET 0.000000 0.000000 0.000000
	CHANNELS 6 Xposition Yposition Zposition Zrotation Yrotation Xrotation
	JOINT lhip
	{
		OFFSET 0.058581 -0.082280 -0.017664
		CHANNELS 3 Zrotation Yrotation Xrotation
		JOINT lknee
		{
			OFFSET 0.043451 -0.386469 0.008037
			CHANNELS 3 Zrotation Yrotation Xrotation
			JOINT lankle
			{
				OFFSET -0.014790 -0.426874 -0.037428
				CHANNELS 3 Zrotation Yrotation Xrotation
				JOINT ltoe
				{
					OFFSET 0.041054 -0.060286 0.122042
					CHANNELS 3 Zrotation Yrotation Xrotation
					End Site
					{
						OFFSET 0.000000 0.000000 0.000000
					}
				}
			}
		}
	}
	JOINT rhip
	{
		OFFSET -0.060310 -0.090513 -0.013543
		CHANNELS 3 Zrotation Yrotation Xrotation
		JOINT rknee
		{
			OFFSET -0.043257 -0.383688 -0.004843
			CHANNELS 3 Zrotation Yrotation Xrotation
			JOINT rankle
			{
				OFFSET 0.019056 -0.420046 -0.034562
				CHANNELS 3 Zrotation Yrotation Xrotation
				JOINT rtoe
				{
					OFFSET -0.034840 -0.062106 0.130323
					CHANNELS 3 Zrotation Yrotation Xrotation
					End Site
					{
						OFFSET 0.000000 0.000000 0.000000
					}
				}
			}
		}
	}
	JOINT lowerback
	{
		OFFSET 0.004439 0.124404 -0.038385
		CHANNELS 3 Zrotation Yrotation Xrotation
		JOINT upperback
		{
			OFFSET 0.004488 0.137956 0.026820
			CHANNELS 3 Zrotation Yrotation Xrotation
			JOINT chest
			{
				OFFSET -0.002265 0.056032 0.002855
				CHANNELS 3 Zrotation Yrotation Xrotation
				JOINT lowerneck
				{
					OFFSET -0.013390 0.211636 -0.033468
					CHANNELS 3 Zrotation Yrotation Xrotation
					JOINT upperneck
					{
						OFFSET 0.010113 0.088937 0.050410
						CHANNELS 3 Zrotation Yrotation Xrotation
						End Site
						{
							OFFSET 0.000000 0.000000 0.000000
						}
					}
				}
				JOINT lclavicle
				{
					OFFSET 0.071702 0.114000 -0.018898
					CHANNELS 3 Zrotation Yrotation Xrotation
					JOINT lshoulder
					{
						OFFSET 0.122921 0.045205 -0.019046
						CHANNELS 3 Zrotation Yrotation Xrotation
						JOINT lelbow
						{
							OFFSET 0.255332 -0.015649 -0.022946
							CHANNELS 3 Zrotation Yrotation Xrotation
							JOINT lwrist
							{
								OFFSET 0.265709 0.012698 -0.007375
								CHANNELS 3 Zrotation Yrotation Xrotation
								End Site
								{
									OFFSET 0.000000 0.000000 0.000000
								}
							}
						}
					}
				}
				JOINT rclavicle
				{
					OFFSET -0.082954 0.112472 -0.023707
					CHANNELS 3 Zrotation Yrotation Xrotation
					JOINT rshoulder
					{
						OFFSET -0.113228 0.046853 -0.008472
						CHANNELS 3 Zrotation Yrotation Xrotation
						JOINT relbow
						{
							OFFSET -0.260127 -0.014369 -0.031269
							CHANNELS 3 Zrotation Yrotation Xrotation
							JOINT rwrist
							{
								OFFSET -0.269108 0.006794 -0.006027
								CHANNELS 3 Zrotation Yrotation Xrotation
								End Site
								{
									OFFSET 0.000000 0.000000 0.000000
								}
							}
						}
					}
				}
			}
		}
	}
}
MOTION
Frames: 7
Frame Time: 0.033333
-1.796141 0.305635 1.023140 91.479062 -1.030522 89.626488 -1.263393 -0.601402 4.196782 -2.808732 -9.760881 2.623929 3.517170 7.690217 -11.183916 0.000000 -0.000000 0.000000 -1.862974 -1.786460 -5.189854 0.492038 -5.383109 18.816740 2.608048 -9.329430 -13.545460 0.000000 -0.000000 0.000000 -0.809007 -0.655292 6.706157 0.390615 -2.347869 -1.279301 -0.396817 -1.209238 2.931202 1.787290 5.785134 -10.809610 -0.611409 -1.433840 1.715878 -24.277774 6.030373 1.079489 -59.126644 -8.228217 8.534672 9.556597 -26.507698 5.547096 -5.113576 -2.879840 -7.391413 29.121965 -3.215077 1.625443 59.940523 4.511561 8.677498 -19.988372 11.674632 -15.754618 6.588314 1.098346 -11.206845 
-1.795308 0.305008 1.023010 91.787747 -1.034204 89.615030 -1.232165 -0.731744 4.152201 -2.797328 -9.911438 2.824472 3.417462 7.736472 -11.260312 0.000000 -0.000000 0.000000 -1.801214 -1.862298 -5.018445 0.502297 -5.389215 18.657873 2.646405 -9.527767 -13.628982 0.000000 -0.000000 0.000000 -0.913844 -0.695425 6.654553 0.358165 -2.432656 -1.450873 -0.415103 -1.338555 2.978656 1.885564 5.713725 -10.926314 -0.534124 -1.591135 2.145029 -24.160456 6.003138 1.189781 -59.187576 -8.344991 8.626677 9.640749 -26.392677 5.511837 -5.136301 -3.052382 -7.430484 29.113249 -3.291429 1.554554 60.254058 4.416886 8.753856 -19.932488 11.432155 -15.754774 6.876864 1.231838 -11.419797 
-1.794860 0.304416 1.022774 91.852035 -1.051943 89.625932 -1.206513 -0.755347 4.149782 -2.788336 -9.981718 2.836757 3.474169 7.773718 -11.293534 0.000000 -0.000000 0.000000 -1.756665 -1.852035 -4.959662 0.529651 -5.403108 18.628670 2.667296 -9.651764 -13.760774 0.000000 -0.000000 0.000000 -1.124278 -0.651166 6.581363 0.365781 -2.422462 -1.520008 -0.360504 -1.355751 2.990056 2.083131 5.310738 -10.637289 -0.553404 -1.864384 2.191698 -24.077667 6.034647 1.187976 -59.285197 -8.506099 8.599954 9.544081 -26.545413 5.566536 -5.044226 -2.868010 -7.524899 29.037248 -3.418812 1.558459 60.508513 4.248800 8.853449 -20.001622 11.617850 -15.247091 6.713779 0.785647 -11.004315 
-1.794347 0.303802 1.022691 92.076652 -1.050469 89.735278 -1.162355 -0.931017 4.051812 -2.755019 -9.968310 2.798211 3.395644 7.776526 -11.232834 0.000000 -0.000000 0.000000 -1.667838 -1.836719 -4.950579 0.471420 -5.528074 18.484341 2.644809 -9.797836 -13.719065 0.000000 -0.000000 0.000000 -1.228468 -0.691650 6.517455 0.303793 -2.513850 -1.758051 -0.442012 -1.431880 2.977491 2.296640 5.184334 -10.424612 -0.163473 -2.069959 2.165634 -24.087581 6.163886 1.153104 -59.134854 -8.589053 8.689547 9.453057 -26.864573 5.700561 -5.141908 -2.946730 -7.434420 29.020979 -3.571969 1.304057 60.634293 3.949065 8.956355 -19.904915 11.512944 -14.962959 6.900739 0.785097 -10.965196 
-1.794006 0.303427 1.022675 92.201973 -1.060336 89.702380 -1.145017 -0.956665 4.127430 -2.752251 -10.076970 2.740094 3.412670 7.799365 -11.184872 0.000000 -0.000000 0.000000 -1.670079 -1.832632 -4.964607 0.515984 -5.598391 18.645556 2.657101 -9.910879 -13.804685 0.000000 -0.000000 0.000000 -1.342562 -0.725027 6.487358 0.294569 -2.535018 -1.757721 -0.465967 -1.459272 2.940408 2.399559 5.001682 -10.520532 -0.076189 -2.330099 2.306715 -24.127439 6.094392 1.160782 -59.058960 -8.713772 8.725802 9.446048 -26.904037 5.611852 -5.165483 -2.815706 -7.349873 29.051271 -3.540967 1.295451 60.679145 3.790236 8.952308 -20.010288 11.506487 -15.031890 6.989605 0.871440 -10.935693 
-1.793422 0.302698 1.022587 92.134283 -1.070885 89.701627 -1.098953 -0.957380 4.169143 -2.778469 -10.026863 2.750122 3.425787 7.820543 -11.221136 0.000000 -0.000000 0.000000 -1.608792 -1.806779 -4.950438 0.523061 -5.463889 18.647108 2.529645 -9.966604 -13.868537 0.000000 -0.000000 0.000000 -1.508874 -0.645250 6.363584 0.258617 -2.537898 -1.721964 -0.499087 -1.443398 2.954441 2.636622 4.913931 -10.559411 0.052411 -2.518499 2.386172 -24.200247 6.079416 1.053052 -58.907481 -8.853492 8.718197 9.352668 -26.999047 5.587117 -5.037843 -2.852898 -7.331251 29.069991 -3.550258 1.259286 60.751869 3.690984 8.980925 -20.064999 11.513055 -15.039756 6.865928 0.700012 -10.878571 
-1.793003 0.302032 1.022402 92.019267 -1.089435 89.734832 -1.091309 -0.944424 4.172054 -2.752902 -9.978415 2.743258 3.496000 7.935702 -11.218557 0.000000 -0.000000 0.000000 -1.553746 -1.601776 -4.971257 0.483816 -5.516274 18.654450 2.497042 -10.028381 -13.956757 0.000000 -0.000000 0.000000 -1.719358 -0.576655 6.332776 0.234085 -2.460428 -1.861432 -0.492425 -1.424752 2.849554 2.667374 4.963903 -10.230877 -0.003313 -2.348605 2.777723 -24.167070 5.942327 1.308004 -58.839897 -8.927317 8.761700 9.430864 -27.142792 5.552326 -5.106768 -2.909626 -7.347642 29.020762 -3.500244 1.483491 60.782097 3.587046 9.008170 -20.017803 11.502913 -14.927354 7.017609 0.793106 -10.936404 
